# xmcd
#
# Track frame offsets:
#	150
#	24369
#	43428
#	70079
#	89366
#	107731
#	128942
#	143384
#	165193
#	191807
#	218156
#	235788
#	253944
#	272776
#	289060
#
# Disc length: 4075 seconds
#
# Revision: 2
# Processed by: cddbd v1.4PL0 Copyright (c) Steve Scherf et al.
# Submitted via: CDmax 1.9
#
DISCID=d90fe90f
DTITLE=Ronnie Baker Brooks - Take Me Witcha
DYEAR=2001
DGENRE=Blues
TTITLE0=I Had My Chance
TTITLE1=Hit Me On The Hip
TTITLE2=See You Hurt No More
TTITLE3=Take me Witcha
TTITLE4=Do You Love Me Baby?
TTITLE5=It Takes a Smart Man To Play Dumb (smart dummy)
TTITLE6=Pick Power
TTITLE7=Set Me Free (featuring Memphis Willie)
TTITLE8=Time Will Tell
TTITLE9=Bring Back the Love (featuring Jellybean Johnson)
TTITLE10=Drama Queen
TTITLE11=Perfect Love
TTITLE12=Flavor of the Week
TTITLE13=Give Me Your Heart
TTITLE14=I Laugh To Keep From Cryin' (featuring Lonnie Brooks)
EXTD=
EXTT0=
EXTT1=
EXTT2=
EXTT3=
EXTT4=
EXTT5=
EXTT6=
EXTT7=
EXTT8=
EXTT9=
EXTT10=
EXTT11=
EXTT12=
EXTT13=
EXTT14=
PLAYORDER=
